PathFileType	4	(X/Y/Z)	C:\Users\WrightLab\Desktop\Jo\P5V26.trc
DataRate	CameraRate	NumFrames	NumMarkers	Units	OrigDataRate	OrigDataStartFrame	OrigNumFrames
100.00	100.00	       35	19	mm	100.00	1	       739
Frame#	Time	Headset_Front			Headset_Back			Headset_Left			Headset_Right			Left_Shoulder			Right_Shoulder			Sternum			C7			Left Elbow			Right Elbow			Left Wrist			Right Wrist			Left ASIS			Right ASIS			S2			Left Knee			Right Knee			Left Ankle			Right Ankle			
		X1	Y1	Z1	X2	Y2	Z2	X3	Y3	Z3	X4	Y4	Z4	X5	Y5	Z5	X6	Y6	Z6	X7	Y7	Z7	X8	Y8	Z8	X9	Y9	Z9	X10	Y10	Z10	X11	Y11	Z11	X12	Y12	Z12	X13	Y13	Z13	X14	Y14	Z14	X15	Y15	Z15	X16	Y16	Z16	X17	Y17	Z17	X18	Y18	Z18	X19	Y19	Z19	

1	0.000										-281.67422	1595.39941	-1202.88477																-478.53387	1185.05347	-1345.21863							-46.93335	907.22406	-1271.11987	-319.79971	942.35693	-1244.94031	-445.36966	1073.09045	-1135.26147	-31.45829	466.42371	-1300.46924	-399.01633	478.29065	-1309.27136							
2	0.010										-281.46521	1595.46826	-1202.05273																-478.56412	1185.00305	-1345.38550							-47.71735	908.00592	-1268.46167	-319.94272	942.36151	-1244.06592	-445.58255	1072.85315	-1135.33167	-32.00933	466.98520	-1298.50293	-399.10663	478.33731	-1309.28760							
3	0.020										-281.43057	1595.45947	-1202.05066																-478.60370	1184.96387	-1345.45862							-47.71815	907.96869	-1268.46350	-319.98087	942.39447	-1244.07605	-445.76245	1072.71497	-1135.37439	-32.69039	467.51511	-1296.61768	-399.16180	478.38409	-1309.29956							
4	0.030										-281.36353	1595.39954	-1201.73560																-478.66666	1184.95264	-1345.48792							-47.73255	907.89429	-1268.54395	-320.00729	942.41931	-1244.08313	-446.19656	1072.87390	-1135.49597	-32.72167	467.44629	-1296.80420	-399.21609	478.40982	-1309.30908							
5	0.040										-281.34735	1595.38586	-1201.73706																-478.72977	1184.92627	-1345.48425							-47.82241	907.68109	-1269.06592	-320.00000	942.54059	-1243.76392	-446.93942	1072.46851	-1135.74133	-32.78677	467.28256	-1297.19006	-399.23648	478.42239	-1309.31287							
6	0.050										-281.33636	1594.94910	-1201.17053																-479.01740	1185.28259	-1346.11682							-48.52248	907.96021	-1266.75342	-320.26932	942.64508	-1243.10742	-447.30164	1071.53833	-1135.78247	-32.85821	467.10849	-1297.61401	-399.28851	478.44220	-1309.32141							
7	0.060										-281.23227	1594.82324	-1200.38501																-479.10010	1185.28699	-1346.14465							-49.16176	907.98022	-1264.97729	-320.35864	942.54248	-1242.58826	-448.60242	1071.62195	-1135.75073	-32.87934	467.04633	-1297.73816	-399.30994	478.44550	-1309.32434							
8	0.070										-281.27271	1594.84119	-1200.38562																-479.18777	1185.31787	-1346.07849							-49.26426	907.75079	-1265.57275	-320.34866	942.51056	-1242.58350	-449.01074	1071.84460	-1135.98560	-32.91627	466.97067	-1297.95898	-399.32394	478.45737	-1309.32739							
9	0.080										-281.27048	1594.72412	-1200.10303																-479.28552	1185.30786	-1346.04846							-49.47377	906.53729	-1265.19812	-320.32083	942.45770	-1242.57349	-449.23828	1071.22046	-1135.82007	-32.93987	466.89194	-1298.09668	-399.50208	478.28397	-1309.32690							
10	0.090										-281.31503	1594.68921	-1200.11768																-479.38000	1185.25403	-1346.01917							-49.50850	906.33282	-1265.39050	-320.29193	942.41321	-1242.56409	-450.19666	1071.30078	-1135.55676	-32.95240	466.85010	-1298.16968	-399.49753	478.27621	-1309.32544							
11	0.100										-281.37503	1594.47607	-1200.06519																-479.47556	1185.24854	-1346.08093							-49.49894	906.30896	-1265.33167	-320.20880	942.48633	-1242.27515	-449.90784	1069.81604	-1135.19897	-33.42985	467.13400	-1296.15186	-399.63116	478.06754	-1309.54700							
12	0.110										-281.44537	1594.18860	-1199.60828																-479.59454	1185.26733	-1346.11914							-49.52383	906.21027	-1265.47290	-320.19647	942.43799	-1242.26843	-450.27277	1069.35242	-1134.79504	-33.42108	467.12146	-1296.09595	-399.65027	478.07684	-1309.55029							
13	0.120										-281.45349	1594.00305	-1199.05408																-479.68420	1185.25476	-1346.00757							-49.53227	906.14545	-1265.51843	-320.36163	942.18976	-1242.02417	-450.67242	1069.42456	-1134.52234	-33.37700	467.23041	-1295.83472	-399.80780	477.73669	-1309.20691							
14	0.130										-281.45374	1593.84424	-1198.39783																-479.82642	1185.19482	-1346.09192							-49.70336	907.98767	-1252.07788	-320.39957	942.17700	-1241.72290	-450.78229	1069.53345	-1134.40771	-33.38874	467.19455	-1295.90356	-400.79630	478.46487	-1308.42261							
15	0.140										-281.52628	1593.83618	-1198.40930																-480.26413	1184.37659	-1344.03821							-49.72105	907.71954	-1251.08533	-320.89575	942.27509	-1240.97803	-451.64737	1069.69336	-1134.39746	-33.35379	467.29184	-1295.69763	-400.99738	478.19623	-1308.45020							
16	0.150										-281.57553	1593.84326	-1197.93372																-480.41110	1184.33337	-1343.97607							-49.51349	906.11365	-1265.40369	-320.91159	942.29602	-1240.98291	-451.82880	1069.22937	-1133.71704	-33.38063	467.18225	-1295.85168	-401.02261	478.20657	-1308.45447							
17	0.160										-281.67847	1593.73157	-1197.60498																-480.54141	1184.32739	-1343.88257							-49.53066	906.08478	-1265.50415	-321.80099	942.34473	-1240.49597	-452.17639	1069.55176	-1133.73071	-33.39631	467.14410	-1295.94470	-401.05698	478.32532	-1307.94653							
18	0.170										-281.80481	1593.74451	-1197.61804																-480.64157	1184.30078	-1343.85266							-49.51510	906.08783	-1265.41125	-321.81573	942.37524	-1240.14417	-452.20490	1069.51624	-1133.74121	-33.38988	467.16064	-1295.90674	-401.08029	478.33264	-1307.95020							
19	0.180										-281.90402	1593.79297	-1197.40210																-481.03842	1184.14185	-1343.28760							-49.58628	905.94061	-1265.82568	-321.84833	942.38684	-1239.60339	-452.31534	1068.83069	-1133.64868	-33.43541	467.03668	-1296.17517	-401.09778	478.33014	-1307.95190							
20	0.190										-282.11865	1593.84949	-1197.41541																-481.18646	1184.14478	-1343.20264							-50.09558	906.64752	-1264.11609	-322.57843	942.41309	-1239.43665	-452.83459	1068.98242	-1133.73682	-33.89556	467.09604	-1294.51392	-401.12570	478.34036	-1307.95642							
21	0.200										-282.34326	1593.75146	-1197.26343																-481.58490	1184.21667	-1343.09412							-50.79689	907.06128	-1262.06287	-322.52185	942.55615	-1239.25781	-452.39288	1068.01257	-1133.25574	-33.92045	467.04083	-1294.66211	-401.12506	478.33978	-1307.95630							
22	0.210										-282.55518	1593.77844	-1197.28406																-481.75720	1184.17102	-1343.09692							-50.78468	907.03119	-1261.98743	-322.69675	942.18488	-1239.39319	-452.41397	1067.95569	-1132.95825	-33.92324	467.01239	-1294.67615	-401.83160	478.59894	-1307.50269							
23	0.220										-282.80035	1593.55750	-1196.77380																-481.94415	1184.07617	-1343.14185							-51.01898	907.54401	-1251.71570	-322.79889	942.01990	-1239.19434	-452.44363	1067.89795	-1132.73108	-33.93435	466.98566	-1294.74207	-402.51443	478.97144	-1306.99707							
24	0.230										-283.06662	1593.60706	-1196.79578																-482.14365	1184.00830	-1343.07654							-51.00829	907.52087	-1251.70789	-322.79630	941.96045	-1238.30811	-452.53229	1067.80115	-1132.73438	-33.96233	466.92291	-1294.90845	-402.47705	478.33032	-1306.79126							
25	0.240										-283.35217	1593.68005	-1196.81433																-482.27676	1183.54004	-1342.36523							-51.86475	906.88434	-1252.07776	-322.77924	941.88501	-1238.29785	-453.27072	1067.84192	-1132.24426	-33.94507	466.97647	-1294.80750	-402.50473	477.69531	-1306.97693							
26	0.250										-283.64291	1593.56873	-1196.69922																-482.58987	1183.05103	-1341.48340							-51.88793	907.21991	-1249.38098	-322.83102	941.79315	-1237.82458	-453.40451	1067.24622	-1132.21301	-33.91698	467.00217	-1294.63611	-402.70270	477.52213	-1306.55994							
27	0.260										-283.91751	1593.59827	-1196.72742																-483.04794	1182.75220	-1340.62219							-51.89198	907.56042	-1246.67358	-322.84140	941.26776	-1237.46069	-453.94003	1067.40552	-1131.63477	-33.92455	466.96683	-1294.67908	-402.75385	477.54993	-1306.18835							
28	0.270										-284.17084	1593.55933	-1196.46082																-483.42807	1182.40686	-1339.57666							-51.91647	907.48987	-1246.69287	-322.87268	941.14087	-1237.14441	-453.66840	1067.05200	-1131.43359	-33.92093	466.96869	-1294.65686	-403.35291	477.41699	-1306.31238							
29	0.280										-284.52667	1593.50610	-1196.59155																-483.59302	1182.28210	-1339.42676							-51.88541	907.46130	-1246.66968	-322.86115	941.04993	-1237.13379	-454.41730	1066.71130	-1131.33618	-33.91059	466.97476	-1294.59338	-403.32336	477.52533	-1305.93970							
30	0.290										-284.86401	1593.54272	-1196.62610																-483.77847	1182.19495	-1339.41687							-51.87121	907.43689	-1246.65906	-323.14301	940.57092	-1236.92065	-454.40976	1066.65308	-1130.80420	-33.87878	467.03101	-1294.40234	-403.65875	476.80942	-1306.13269							
31	0.300										-285.20041	1593.35010	-1196.22192																-483.98523	1182.05994	-1339.39258							-51.85607	907.40967	-1246.64795	-323.26575	940.46155	-1236.36182	-455.75290	1066.17822	-1130.14319	-33.86921	467.08282	-1294.34888	-403.66269	476.77274	-1306.12891							
32	0.310										-285.64093	1593.32800	-1196.46667																-484.56052	1182.00623	-1339.08496							-51.88288	907.36432	-1246.66858	-323.37115	940.18481	-1236.26392	-455.87540	1066.01660	-1130.15735	-33.85157	467.10318	-1294.24182	-403.88986	476.48697	-1305.89417				-388.25598	75.36707	-1430.16272	
33	0.320										-286.03235	1593.22424	-1196.26587																-484.81375	1181.95496	-1339.23157							-51.90982	907.31177	-1246.68945	-323.46695	940.03241	-1236.06458	-455.87534	1065.24780	-1129.80542	-33.81647	467.20129	-1294.03528	-403.92548	476.45499	-1305.33972				-388.94595	75.16493	-1426.63379	
34	0.330										-286.45880	1593.10803	-1196.28784																-485.03857	1181.91687	-1339.45667							-51.94017	907.27753	-1246.71277	-323.45837	940.00952	-1236.06091	-456.97351	1065.27356	-1129.61316	-33.80556	467.18774	-1293.96594	-403.85953	476.28568	-1305.31189				-388.93048	75.08447	-1426.53906	
35	0.340										-286.81403	1592.97400	-1196.08118																-485.32129	1181.89233	-1339.78052							-52.02606	906.88391	-1246.74866	-323.44730	939.98053	-1236.05603	-457.12064	1064.83386	-1128.98669	-33.31005	467.18155	-1295.41309	-403.94708	475.99146	-1305.27356				-388.95218	75.00912	-1426.63025	
